<svg width="19" height="19" viewBox="0 0 19 19" fill="none" xmlns="http://www.w3.org/2000/svg">
<path d="M2.125 9.25H17.8816C17.981 9.25 18.0764 9.2105 18.1467 9.14017C18.2171 9.06984 18.2566 8.97446 18.2566 8.875V6.25C18.2566 6.15148 18.2373 6.05391 18.1997 5.96287C18.162 5.87182 18.1068 5.78908 18.0372 5.71938L12.7872 0.469379C12.7173 0.39953 12.6342 0.34419 12.5428 0.306542C12.4515 0.268894 12.3535 0.24968 12.2547 0.250004H3.25C2.85218 0.250004 2.47064 0.408039 2.18934 0.689344C1.90804 0.970648 1.75 1.35218 1.75 1.75V8.875C1.75 8.97446 1.78951 9.06984 1.85984 9.14017C1.93016 9.2105 2.02554 9.25 2.125 9.25ZM12.25 2.125L16.375 6.25H12.25V2.125ZM2.875 11.5H1.375C1.17609 11.5 0.985322 11.579 0.84467 11.7197C0.704018 11.8603 0.625 12.0511 0.625 12.25V17.5C0.625 17.6989 0.704018 17.8897 0.84467 18.0303C0.985322 18.171 1.17609 18.25 1.375 18.25H2.81219C4.65625 18.25 6.20781 16.7988 6.25 14.9566C6.26088 14.5065 6.18162 14.0589 6.01689 13.6399C5.85216 13.221 5.60528 12.8393 5.29079 12.5172C4.9763 12.1951 4.60056 11.9392 4.18568 11.7645C3.7708 11.5898 3.32516 11.4999 2.875 11.5ZM2.82906 16.75H2.125V13H2.875C3.12742 12.9998 3.37728 13.0506 3.60961 13.1493C3.84193 13.248 4.05193 13.3926 4.22701 13.5745C4.4021 13.7563 4.53867 13.9716 4.62854 14.2075C4.71841 14.4434 4.75972 14.695 4.75 14.9472C4.71156 15.9616 3.84531 16.75 2.83 16.75H2.82906ZM18.8294 16.3488C18.9494 16.4995 19.0088 16.6896 18.9962 16.8818C18.9835 17.0741 18.8996 17.2547 18.7609 17.3884C18.5008 17.6585 18.1894 17.8739 17.8448 18.0219C17.5003 18.1698 17.1296 18.2474 16.7547 18.25C15.1 18.25 13.7547 16.7359 13.7547 14.875C13.7547 13.0141 15.1009 11.5 16.7547 11.5C17.1296 11.5026 17.5003 11.5802 17.8448 11.7282C18.1894 11.8761 18.5008 12.0915 18.7609 12.3616C18.8996 12.4953 18.9835 12.6759 18.9962 12.8682C19.0088 13.0604 18.9494 13.2505 18.8294 13.4013C18.7616 13.4818 18.6776 13.5472 18.5828 13.5931C18.4881 13.6391 18.3847 13.6646 18.2795 13.6679C18.1743 13.6713 18.0695 13.6524 17.972 13.6126C17.8746 13.5728 17.7866 13.5129 17.7138 13.4369C17.5921 13.3028 17.4444 13.1949 17.2797 13.1198C17.115 13.0446 16.9366 13.0039 16.7556 13C15.9288 13 15.2556 13.8438 15.2556 14.875C15.2556 15.9063 15.9288 16.75 16.7556 16.75C16.9368 16.746 17.1152 16.7052 17.2801 16.6301C17.4449 16.555 17.5928 16.4472 17.7147 16.3131C17.7875 16.2371 17.8755 16.1772 17.973 16.1374C18.0704 16.0976 18.1752 16.0787 18.2804 16.0821C18.3857 16.0855 18.489 16.1109 18.5838 16.1569C18.6785 16.2028 18.7625 16.2682 18.8303 16.3488H18.8294ZM10 11.5C8.34531 11.5 7 13.0141 7 14.875C7 16.7359 8.34719 18.25 10 18.25C11.6528 18.25 13 16.7359 13 14.875C13 13.0141 11.6584 11.5 10 11.5ZM10 16.75C9.17219 16.75 8.5 15.9063 8.5 14.875C8.5 13.8438 9.17313 13 10 13C10.8269 13 11.5 13.8438 11.5 14.875C11.5 15.9063 10.8306 16.75 10 16.75Z" fill="#EA0000"/>
</svg>
