<svg width="498" height="171" viewBox="0 0 498 171" fill="none" xmlns="http://www.w3.org/2000/svg">
<path d="M27.5286 63C23.9765 63 20.5429 62.4167 17.2276 61.25C13.9123 60.025 10.9818 58.1583 8.43619 55.65C5.89053 53.1417 3.84809 49.9333 2.30885 46.025C0.769617 42.1167 0 37.4208 0 31.9375V30.1875C0 24.9375 0.769617 20.4167 2.30885 16.625C3.84809 12.8333 5.89053 9.7125 8.43619 7.2625C10.9818 4.75417 13.9123 2.91667 17.2276 1.75C20.5429 0.583333 23.9765 0 27.5286 0C31.0807 0 34.5144 0.583333 37.8297 1.75C41.1449 2.91667 44.0754 4.75417 46.6211 7.2625C49.1667 9.7125 51.2092 12.8333 52.7484 16.625C54.2876 20.4167 55.0573 24.9375 55.0573 30.1875V31.9375C55.0573 37.4208 54.2876 42.1167 52.7484 46.025C51.2092 49.9333 49.1667 53.1417 46.6211 55.65C44.0754 58.1583 41.1449 60.025 37.8297 61.25C34.5144 62.4167 31.0807 63 27.5286 63ZM27.5286 55.65C29.9559 55.65 32.2943 55.2125 34.544 54.3375C36.7936 53.4625 38.7769 52.0917 40.4937 50.225C42.2106 48.3 43.5722 45.85 44.5786 42.875C45.6442 39.8417 46.177 36.1958 46.177 31.9375V30.1875C46.177 26.1625 45.6442 22.7208 44.5786 19.8625C43.5722 16.9458 42.2106 14.5833 40.4937 12.775C38.7769 10.9083 36.7936 9.5375 34.544 8.6625C32.2943 7.7875 29.9559 7.35 27.5286 7.35C25.1014 7.35 22.7629 7.7875 20.5133 8.6625C18.2636 9.5375 16.2804 10.9083 14.5635 12.775C12.8467 14.5833 11.4555 16.9458 10.3898 19.8625C9.38341 22.7208 8.8802 26.1625 8.8802 30.1875V31.9375C8.8802 36.1958 9.38341 39.8417 10.3898 42.875C11.4555 45.85 12.8467 48.3 14.5635 50.225C16.2804 52.0917 18.2636 53.4625 20.5133 54.3375C22.7629 55.2125 25.1014 55.65 27.5286 55.65Z" fill="#EA0000"/>
<path d="M68.2208 0.874999H76.3905L109.78 48.5625V0.874999H117.95V62.125H109.78L76.3905 14.4375V62.125H68.2208V0.874999Z" fill="#EA0000"/>
<path d="M129.296 34.0375H155.936V41.2125H129.296V34.0375Z" fill="#EA0000"/>
<path d="M189.937 63C186.444 63 183.129 62.4167 179.991 61.25C176.854 60.025 174.071 58.1583 171.644 55.65C169.217 53.0833 167.293 49.8458 165.872 45.9375C164.451 42.0292 163.741 37.3625 163.741 31.9375V30.1875C163.741 24.9375 164.451 20.4167 165.872 16.625C167.293 12.8333 169.217 9.7125 171.644 7.2625C174.071 4.8125 176.854 3.00417 179.991 1.8375C183.129 0.612501 186.444 0 189.937 0C193.312 0 196.39 0.4375 199.173 1.3125C202.014 2.1875 204.501 3.44167 206.632 5.075C208.763 6.70834 210.48 8.72083 211.782 11.1125C213.144 13.5042 214.002 16.2167 214.358 19.25H205.477C204.649 15.2833 202.902 12.3083 200.238 10.325C197.574 8.34167 194.14 7.35 189.937 7.35C187.747 7.35 185.615 7.75833 183.543 8.575C181.471 9.39166 179.606 10.7042 177.949 12.5125C176.35 14.2625 175.048 16.5958 174.042 19.5125C173.094 22.4292 172.621 25.9875 172.621 30.1875V31.9375C172.621 36.3708 173.154 40.1042 174.219 43.1375C175.285 46.1125 176.646 48.5333 178.304 50.4C179.962 52.2667 181.827 53.6083 183.899 54.425C185.971 55.2417 187.983 55.65 189.937 55.65C194.555 55.65 198.166 54.5417 200.771 52.325C203.376 50.1083 204.945 47.25 205.477 43.75H214.358C213.884 47.1333 212.937 50.05 211.516 52.5C210.095 54.8917 208.29 56.875 206.099 58.45C203.968 60.025 201.511 61.1917 198.729 61.95C196.005 62.65 193.075 63 189.937 63Z" fill="#EA0000"/>
<path d="M226.585 0.874999H234.932V27.0375H267.966V0.874999H276.314V62.125H267.966V34.2125H234.932V62.125H226.585V0.874999Z" fill="#EA0000"/>
<path d="M326.821 46.9H300.536L294.586 62.125H285.884L309.682 0.874999H318.03L341.829 62.125H332.771L326.821 46.9ZM303.289 39.725H324.068L313.679 11.375L303.289 39.725Z" fill="#EA0000"/>
<path d="M352.3 0.874999H360.648V62.125H352.3V0.874999Z" fill="#EA0000"/>
<path d="M378.271 0.874999H386.441L419.83 48.5625V0.874999H428V62.125H419.83L386.441 14.4375V62.125H378.271V0.874999Z" fill="#EA0000"/>
<path d="M82.71 79.0576H61.3657V71.876H112.311V79.0576H90.9667V133.183H82.71V79.0576Z" fill="#EA0000"/>
<path d="M61.3657 79.0547H82.7104V133.18H90.9663V79.0547H112.311V170.999H61.3657V79.0547Z" fill="url(#paint0_linear_226_4475)" fill-opacity="0.3"/>
<path d="M144.691 134.058C141.236 134.058 137.956 133.474 134.853 132.307C131.749 131.081 128.997 129.212 126.596 126.701C124.195 124.132 122.292 120.892 120.887 116.98C119.482 113.068 118.779 108.397 118.779 102.967V101.215C118.779 95.9606 119.482 91.4355 120.887 87.6404C122.292 83.8452 124.195 80.7215 126.596 78.2692C128.997 75.817 131.749 74.0069 134.853 72.8392C137.956 71.6131 141.236 71 144.691 71C148.028 71 151.073 71.4379 153.826 72.3137C156.636 73.1895 159.096 74.4449 161.204 76.0797C163.312 77.7145 165.01 79.7289 166.298 82.1228C167.645 84.5167 168.494 87.2317 168.846 90.2678H160.062C159.242 86.2975 157.515 83.3197 154.88 81.3346C152.245 79.3494 148.848 78.3568 144.691 78.3568C142.524 78.3568 140.416 78.7655 138.366 79.5829C136.317 80.4003 134.472 81.7141 132.833 83.5241C131.252 85.2757 129.963 87.6112 128.968 90.5305C128.031 93.4499 127.562 97.0115 127.562 101.215V102.967C127.562 107.404 128.089 111.141 129.144 114.177C130.198 117.155 131.544 119.578 133.184 121.447C134.824 123.315 136.668 124.658 138.718 125.475C140.767 126.293 142.758 126.701 144.691 126.701C149.258 126.701 152.83 125.592 155.407 123.373C157.983 121.155 159.535 118.294 160.062 114.79H168.846C168.377 118.177 167.44 121.096 166.035 123.549C164.63 125.942 162.843 127.928 160.677 129.504C158.569 131.081 156.139 132.248 153.386 133.007C150.693 133.708 147.794 134.058 144.691 134.058Z" fill="#EA0000"/>
<path d="M168.843 171H120.203V114.81C120.409 115.556 120.636 116.28 120.887 116.979C122.292 120.89 124.196 124.13 126.597 126.699C128.997 129.21 131.749 131.079 134.853 132.305C137.956 133.472 141.236 134.057 144.69 134.057C147.794 134.057 150.693 133.706 153.387 133.005C156.139 132.246 158.569 131.078 160.677 129.502C162.843 127.926 164.63 125.941 166.035 123.547C167.438 121.099 168.373 118.186 168.843 114.808V171Z" fill="url(#paint1_linear_226_4475)" fill-opacity="0.3"/>
<path d="M205.138 71.876H223.145C227.771 71.876 231.899 72.5182 235.53 73.8028C239.16 75.0289 242.234 76.8681 244.752 79.3204C247.27 81.7726 249.203 84.838 250.55 88.5163C251.897 92.1947 252.57 96.4278 252.57 101.216V102.967C252.57 107.872 251.867 112.222 250.462 116.017C249.115 119.754 247.124 122.906 244.489 125.475C241.912 127.986 238.75 129.913 235.003 131.256C231.255 132.54 227.009 133.183 222.266 133.183H205.138V71.876ZM221.388 126.001C224.843 126.001 227.946 125.563 230.699 124.687C233.509 123.811 235.881 122.469 237.813 120.659C239.746 118.79 241.21 116.396 242.205 113.477C243.259 110.558 243.786 107.054 243.786 102.967V101.216C243.786 97.3036 243.289 93.9464 242.293 91.1438C241.298 88.3412 239.863 86.0641 237.989 84.3125C236.115 82.5025 233.831 81.1887 231.138 80.3713C228.503 79.4955 225.546 79.0576 222.266 79.0576H213.395V126.001H221.388Z" fill="#EA0000"/>
<path d="M250.912 171H205.138V133.181H222.266C227.009 133.181 231.255 132.538 235.002 131.254C238.75 129.911 241.912 127.984 244.489 125.474C247.124 122.905 249.115 119.751 250.461 116.015C250.609 115.616 250.747 115.211 250.879 114.8H250.912V171Z" fill="url(#paint2_linear_226_4475)" fill-opacity="0.3"/>
<path d="M269.02 71.876H308.546V79.0576H277.276V98.0627H305.911V105.244H277.276V126.001H308.546V133.183H269.02V71.876Z" fill="#EA0000"/>
<path d="M308.546 170.999H269.02V133.181H308.546V170.999Z" fill="url(#paint3_linear_226_4475)" fill-opacity="0.3"/>
<path d="M342.243 134.058C338.554 134.058 335.334 133.62 332.581 132.745C329.829 131.869 327.516 130.672 325.642 129.154C323.769 127.577 322.275 125.767 321.163 123.724C320.109 121.622 319.377 119.374 318.967 116.98H327.223C327.516 118.323 328.014 119.607 328.717 120.834C329.419 122.001 330.356 123.023 331.527 123.899C332.757 124.775 334.25 125.475 336.007 126.001C337.764 126.468 339.843 126.701 342.243 126.701C347.162 126.701 350.881 125.767 353.399 123.899C355.975 122.03 357.264 119.724 357.264 116.98C357.264 115.287 356.971 113.856 356.385 112.689C355.858 111.521 354.921 110.499 353.574 109.623C352.286 108.747 350.559 107.959 348.392 107.258C346.284 106.558 343.678 105.857 340.575 105.157C337.12 104.398 334.133 103.58 331.615 102.704C329.156 101.77 327.106 100.632 325.467 99.2886C323.886 97.8873 322.685 96.2233 321.865 94.2965C321.104 92.3697 320.724 90.0051 320.724 87.2025C320.724 84.9254 321.221 82.8234 322.217 80.8966C323.212 78.9115 324.618 77.1891 326.433 75.7294C328.307 74.2697 330.561 73.1311 333.196 72.3137C335.89 71.4379 338.906 71 342.243 71C345.523 71 348.392 71.4379 350.851 72.3137C353.311 73.1311 355.39 74.2697 357.088 75.7294C358.845 77.1891 360.221 78.9115 361.216 80.8966C362.212 82.8234 362.914 84.9254 363.324 87.2025H355.068C354.775 85.9763 354.336 84.8378 353.75 83.7868C353.165 82.6775 352.345 81.7433 351.291 80.9842C350.295 80.1668 349.036 79.5245 347.514 79.0574C346.05 78.5903 344.293 78.3568 342.243 78.3568C338.027 78.3568 334.748 79.2326 332.406 80.9842C330.122 82.6775 328.98 84.7502 328.98 87.2025C328.98 88.7789 329.273 90.151 329.859 91.3188C330.444 92.4281 331.352 93.4207 332.581 94.2965C333.811 95.1139 335.363 95.8438 337.237 96.486C339.169 97.0699 341.453 97.6538 344.088 98.2377C347.894 99.0551 351.144 99.9893 353.838 101.04C356.59 102.033 358.815 103.259 360.513 104.719C362.27 106.178 363.529 107.901 364.29 109.886C365.11 111.871 365.52 114.236 365.52 116.98C365.52 119.374 364.993 121.622 363.939 123.724C362.885 125.767 361.363 127.577 359.372 129.154C357.381 130.672 354.951 131.869 352.081 132.745C349.212 133.62 345.933 134.058 342.243 134.058Z" fill="#EA0000"/>
<path d="M365.521 171H318.967V116.965H319.005L318.967 116.979C319.377 119.372 320.109 121.62 321.163 123.722C322.276 125.765 323.769 127.575 325.643 129.151C327.516 130.669 329.829 131.866 332.581 132.742C335.333 133.618 338.554 134.057 342.243 134.057C345.932 134.057 349.212 133.618 352.081 132.742C354.95 131.866 357.381 130.669 359.372 129.151C361.363 127.575 362.885 125.765 363.939 123.722C364.993 121.62 365.52 119.372 365.521 116.979V171Z" fill="url(#paint4_linear_226_4475)" fill-opacity="0.3"/>
<path d="M380.812 71.876H389.068V104.193L417.966 71.876H428.243L405.406 97.0993L430 133.183H419.811L400.048 102.704L389.068 114.703V133.183H380.812V71.876Z" fill="#EA0000"/>
<path d="M419.811 133.181H430V170.999H380.812V133.181H389.068V114.701L400.048 102.702L419.811 133.181Z" fill="url(#paint5_linear_226_4475)" fill-opacity="0.3"/>
<path d="M27.2293 134.058C23.7159 134.058 20.3195 133.474 17.0403 132.307C13.7611 131.081 10.8625 129.212 8.34447 126.701C5.82649 124.191 3.80625 120.98 2.28375 117.068C0.76125 113.156 0 108.455 0 102.967V101.215C0 95.9606 0.76125 91.4355 2.28375 87.6404C3.80625 83.8452 5.82649 80.7215 8.34447 78.2692C10.8625 75.7586 13.7611 73.9194 17.0403 72.7516C20.3195 71.5839 23.7159 71 27.2293 71C30.7428 71 34.1391 71.5839 37.4184 72.7516C40.6976 73.9194 43.5962 75.7586 46.1142 78.2692C48.6322 80.7215 50.6524 83.8452 52.1749 87.6404C53.6974 91.4355 54.4587 95.9606 54.4587 101.215V102.967C54.4587 108.455 53.6974 113.156 52.1749 117.068C50.6524 120.98 48.6322 124.191 46.1142 126.701C43.5962 129.212 40.6976 131.081 37.4184 132.307C34.1391 133.474 30.7428 134.058 27.2293 134.058ZM27.2293 126.701C29.6302 126.701 31.9432 126.264 34.1684 125.388C36.3936 124.512 38.3553 123.14 40.0535 121.271C41.7517 119.345 43.0985 116.892 44.094 113.915C45.148 110.879 45.675 107.229 45.675 102.967V101.215C45.675 97.1867 45.148 93.7418 44.094 90.8809C43.0985 87.9615 41.7517 85.5968 40.0535 83.7868C38.3553 81.9184 36.3936 80.5463 34.1684 79.6705C31.9432 78.7947 29.6302 78.3568 27.2293 78.3568C24.8285 78.3568 22.5154 78.7947 20.2902 79.6705C18.0651 80.5463 16.1034 81.9184 14.4052 83.7868C12.707 85.5968 11.3309 87.9615 10.2769 90.8809C9.2814 93.7418 8.78366 97.1867 8.78366 101.215V102.967C8.78366 107.229 9.2814 110.879 10.2769 113.915C11.3309 116.892 12.707 119.345 14.4052 121.271C16.1034 123.14 18.0651 124.512 20.2902 125.388C22.5154 126.264 24.8285 126.701 27.2293 126.701Z" fill="#EA0000"/>
<path d="M54.459 171.001H0V102.966C0 108.454 0.761682 113.154 2.28418 117.066C3.80668 120.978 5.82675 124.19 8.34473 126.7C10.8627 129.211 13.7609 131.08 17.04 132.306C20.3193 133.473 23.716 134.058 27.2295 134.058C30.7428 134.058 34.1389 133.473 37.418 132.306C40.6972 131.08 43.5963 129.211 46.1143 126.7C48.6322 124.19 50.6523 120.978 52.1748 117.066C53.6973 113.154 54.459 108.454 54.459 102.966V171.001Z" fill="url(#paint6_linear_226_4475)" fill-opacity="0.3"/>
<defs>
<linearGradient id="paint0_linear_226_4475" x1="86.8384" y1="78.4686" x2="86.8384" y2="170.999" gradientUnits="userSpaceOnUse">
<stop stop-color="#EA0000"/>
<stop offset="1" stop-color="#EA0000" stop-opacity="0"/>
</linearGradient>
<linearGradient id="paint1_linear_226_4475" x1="144.523" y1="114.808" x2="144.523" y2="171" gradientUnits="userSpaceOnUse">
<stop stop-color="#EA0000"/>
<stop offset="1" stop-color="#EA0000" stop-opacity="0"/>
</linearGradient>
<linearGradient id="paint2_linear_226_4475" x1="228.025" y1="114.8" x2="228.025" y2="171" gradientUnits="userSpaceOnUse">
<stop stop-color="#EA0000"/>
<stop offset="1" stop-color="#EA0000" stop-opacity="0"/>
</linearGradient>
<linearGradient id="paint3_linear_226_4475" x1="288.783" y1="128.027" x2="288.783" y2="170.999" gradientUnits="userSpaceOnUse">
<stop stop-color="#EA0000"/>
<stop offset="1" stop-color="#EA0000" stop-opacity="0"/>
</linearGradient>
<linearGradient id="paint4_linear_226_4475" x1="342.244" y1="116.965" x2="342.244" y2="171" gradientUnits="userSpaceOnUse">
<stop stop-color="#EA0000"/>
<stop offset="1" stop-color="#EA0000" stop-opacity="0"/>
</linearGradient>
<linearGradient id="paint5_linear_226_4475" x1="405.406" y1="102.702" x2="405.406" y2="170.999" gradientUnits="userSpaceOnUse">
<stop stop-color="#EA0000"/>
<stop offset="1" stop-color="#EA0000" stop-opacity="0"/>
</linearGradient>
<linearGradient id="paint6_linear_226_4475" x1="27.2295" y1="102.966" x2="27.2295" y2="171.001" gradientUnits="userSpaceOnUse">
<stop stop-color="#EA0000"/>
<stop offset="1" stop-color="#EA0000" stop-opacity="0"/>
</linearGradient>
</defs>
</svg>
