<svg width="154" height="28" viewBox="0 0 154 28" fill="none" xmlns="http://www.w3.org/2000/svg">
<path d="M43.7332 23.6617C42.8351 23.6617 41.9991 23.5233 41.2253 23.2466C40.4653 22.9698 39.8021 22.534 39.2356 21.939C38.669 21.3439 38.22 20.5829 37.8883 19.6558C37.5705 18.7148 37.4116 17.5871 37.4116 16.2725V15.8574C37.4116 14.5982 37.5774 13.5189 37.9091 12.6194C38.2407 11.7062 38.6898 10.959 39.2563 10.3778C39.8366 9.79661 40.5068 9.36765 41.2668 9.0909C42.0406 8.81416 42.8627 8.67578 43.7332 8.67578C44.5347 8.67578 45.2808 8.77956 45.9717 8.98712C46.6626 9.18085 47.2636 9.47835 47.7749 9.87964C48.3 10.2809 48.7214 10.7791 49.0392 11.3741C49.3708 11.9691 49.5712 12.6679 49.6403 13.4704H47.0287C46.8491 12.571 46.4622 11.9137 45.8681 11.4986C45.2877 11.0835 44.5761 10.8759 43.7332 10.8759C43.2772 10.8759 42.8282 10.959 42.386 11.125C41.9438 11.2911 41.5431 11.5678 41.1839 11.9553C40.8384 12.3427 40.5552 12.8547 40.3341 13.4912C40.1268 14.1277 40.0232 14.9165 40.0232 15.8574V16.2725C40.0232 17.2688 40.1337 18.0991 40.3548 18.7633C40.5897 19.4275 40.8868 19.9602 41.246 20.3615C41.6053 20.7628 41.9991 21.0464 42.4275 21.2125C42.8696 21.3785 43.3049 21.4616 43.7332 21.4616C44.7281 21.4616 45.495 21.2332 46.0339 20.7766C46.5866 20.3061 46.9182 19.6696 47.0287 18.867H49.6403C49.5574 19.725 49.3501 20.4583 49.0185 21.0672C48.6869 21.676 48.2585 22.1742 47.7335 22.5616C47.2222 22.9352 46.6211 23.212 45.9302 23.3919C45.2532 23.5718 44.5208 23.6617 43.7332 23.6617Z" fill="#EA0000"/>
<path d="M58.3544 23.6617C57.47 23.6617 56.6271 23.5233 55.8257 23.2466C55.0243 22.9698 54.3196 22.5409 53.7116 21.9597C53.1036 21.3647 52.62 20.6036 52.2607 19.6765C51.9015 18.7356 51.7219 17.6009 51.7219 16.2725V15.8574C51.7219 14.5844 51.9015 13.4981 52.2607 12.5987C52.62 11.6854 53.1036 10.9382 53.7116 10.357C54.3196 9.77586 55.0243 9.35381 55.8257 9.0909C56.6271 8.81416 57.47 8.67578 58.3544 8.67578C59.2387 8.67578 60.0816 8.81416 60.883 9.0909C61.6844 9.35381 62.3891 9.77586 62.9971 10.357C63.6051 10.9382 64.0887 11.6854 64.448 12.5987C64.8072 13.4981 64.9869 14.5844 64.9869 15.8574V16.2725C64.9869 17.6009 64.8072 18.7356 64.448 19.6765C64.0887 20.6036 63.6051 21.3647 62.9971 21.9597C62.3891 22.5409 61.6844 22.9698 60.883 23.2466C60.0816 23.5233 59.2387 23.6617 58.3544 23.6617ZM58.3544 21.4616C58.8656 21.4616 59.3631 21.3716 59.8467 21.1917C60.3303 21.0118 60.7586 20.7213 61.1317 20.32C61.5048 19.9049 61.8019 19.3652 62.023 18.701C62.2579 18.0368 62.3753 17.2273 62.3753 16.2725V15.8574C62.3753 14.9441 62.2579 14.1762 62.023 13.5535C61.8019 12.917 61.5048 12.405 61.1317 12.0175C60.7586 11.6162 60.3303 11.3256 59.8467 11.1458C59.3631 10.9659 58.8656 10.8759 58.3544 10.8759C57.8293 10.8759 57.3249 10.9659 56.8413 11.1458C56.3577 11.3256 55.9293 11.6162 55.5563 12.0175C55.1832 12.405 54.8861 12.917 54.665 13.5535C54.4439 14.1762 54.3334 14.9441 54.3334 15.8574V16.2725C54.3334 17.2273 54.4439 18.0368 54.665 18.701C54.8861 19.3652 55.1832 19.9049 55.5563 20.32C55.9293 20.7213 56.3577 21.0118 56.8413 21.1917C57.3249 21.3716 57.8293 21.4616 58.3544 21.4616Z" fill="#EA0000"/>
<path d="M68.1995 8.9041H70.6867V23.4334H68.1995V8.9041Z" fill="#EA0000"/>
<path d="M74.6312 8.9041H77.0355L84.1654 19.2822V8.9041H86.6526V23.4334H84.2483L77.1184 13.0553V23.4334H74.6312V8.9041Z" fill="#EA0000"/>
<path d="M95.2493 23.6617C94.3097 23.6617 93.4944 23.5579 92.8035 23.3504C92.1126 23.1428 91.5323 22.8522 91.0625 22.4786C90.6065 22.105 90.2542 21.6691 90.0054 21.171C89.7567 20.659 89.6047 20.0986 89.5495 19.4897H92.0366C92.0919 19.7803 92.1817 20.0432 92.3061 20.2785C92.4443 20.5137 92.6377 20.7213 92.8864 20.9011C93.1352 21.081 93.446 21.2194 93.8191 21.3163C94.206 21.4131 94.6827 21.4616 95.2493 21.4616C95.8296 21.4616 96.3201 21.4131 96.7208 21.3163C97.1354 21.2056 97.467 21.0672 97.7157 20.9011C97.9783 20.7213 98.1648 20.5137 98.2753 20.2785C98.3997 20.0294 98.4619 19.7665 98.4619 19.4897C98.4619 18.8117 98.1441 18.2997 97.5085 17.9538C96.8867 17.6078 95.9125 17.2965 94.586 17.0197C93.8399 16.8537 93.1766 16.66 92.5963 16.4386C92.0159 16.2033 91.5323 15.9197 91.1454 15.5876C90.7585 15.2416 90.4614 14.8334 90.2542 14.363C90.0607 13.8787 89.964 13.3044 89.964 12.6402C89.964 12.1005 90.0745 11.5886 90.2956 11.1042C90.5305 10.6199 90.869 10.1979 91.3112 9.83812C91.7534 9.47835 92.2992 9.19468 92.9486 8.98712C93.6119 8.77956 94.3787 8.67578 95.2493 8.67578C96.0921 8.67578 96.8314 8.77264 97.467 8.96637C98.1026 9.16009 98.6346 9.43684 99.063 9.79661C99.5051 10.1425 99.8437 10.5577 100.079 11.042C100.327 11.5263 100.479 12.059 100.535 12.6402H98.0473C97.9368 12.1144 97.6535 11.6923 97.1976 11.3741C96.7554 11.042 96.106 10.8759 95.2493 10.8759C94.2544 10.8759 93.5359 11.0489 93.0937 11.3948C92.6654 11.7408 92.4512 12.1559 92.4512 12.6402C92.4512 13.3044 92.7275 13.8025 93.2802 14.1346C93.8329 14.4667 94.6827 14.7504 95.8296 14.9856C96.6725 15.1655 97.4117 15.3731 98.0473 15.6083C98.6968 15.8436 99.2357 16.1411 99.664 16.5008C100.092 16.8468 100.41 17.2619 100.617 17.7462C100.839 18.2305 100.949 18.8117 100.949 19.4897C100.949 20.0847 100.832 20.6382 100.597 21.1502C100.362 21.6622 100.003 22.105 99.5189 22.4786C99.0491 22.8522 98.455 23.1428 97.7365 23.3504C97.0317 23.5579 96.2027 23.6617 95.2493 23.6617Z" fill="#EA0000"/>
<path d="M107.076 11.0627H102.206V8.9041H114.434V11.0627H109.564V23.4334H107.076V11.0627Z" fill="#EA0000"/>
<path d="M123.296 20.1539H117.41L116.187 23.4334H113.7L119.192 8.9041H121.68L127.172 23.4334H124.519L123.296 20.1539ZM118.218 17.9953H122.488L120.374 12.0175L118.218 17.9953Z" fill="#EA0000"/>
<path d="M129.342 8.9041H134.835C135.747 8.9041 136.541 9.0148 137.218 9.2362C137.909 9.4576 138.482 9.76894 138.938 10.1702C139.394 10.5715 139.74 11.0489 139.975 11.6024C140.21 12.1559 140.327 12.7647 140.327 13.4289C140.327 14.4252 140.058 15.2901 139.519 16.0235C138.98 16.743 138.172 17.2619 137.094 17.5802L140.742 23.4334H138.006L134.793 17.8707H131.829V23.4334H129.342V8.9041ZM134.42 15.7951C135.691 15.7951 136.576 15.5876 137.073 15.1725C137.584 14.7573 137.84 14.1762 137.84 13.4289C137.84 12.6817 137.584 12.1005 137.073 11.6854C136.576 11.2703 135.691 11.0627 134.42 11.0627H131.829V15.7951H134.42Z" fill="#EA0000"/>
<path d="M148.3 23.6617C147.361 23.6617 146.546 23.5579 145.855 23.3504C145.164 23.1428 144.583 22.8522 144.114 22.4786C143.658 22.105 143.305 21.6691 143.057 21.171C142.808 20.659 142.656 20.0986 142.601 19.4897H145.088C145.143 19.7803 145.233 20.0432 145.357 20.2785C145.495 20.5137 145.689 20.7213 145.938 20.9011C146.186 21.081 146.497 21.2194 146.87 21.3163C147.257 21.4131 147.734 21.4616 148.3 21.4616C148.881 21.4616 149.371 21.4131 149.772 21.3163C150.186 21.2056 150.518 21.0672 150.767 20.9011C151.029 20.7213 151.216 20.5137 151.326 20.2785C151.451 20.0294 151.513 19.7665 151.513 19.4897C151.513 18.8117 151.195 18.2997 150.56 17.9538C149.938 17.6078 148.964 17.2965 147.637 17.0197C146.891 16.8537 146.228 16.66 145.647 16.4386C145.067 16.2033 144.583 15.9197 144.197 15.5876C143.81 15.2416 143.513 14.8334 143.305 14.363C143.112 13.8787 143.015 13.3044 143.015 12.6402C143.015 12.1005 143.126 11.5886 143.347 11.1042C143.582 10.6199 143.92 10.1979 144.362 9.83812C144.804 9.47835 145.35 9.19468 146 8.98712C146.663 8.77956 147.43 8.67578 148.3 8.67578C149.143 8.67578 149.882 8.77264 150.518 8.96637C151.154 9.16009 151.686 9.43684 152.114 9.79661C152.556 10.1425 152.895 10.5577 153.13 11.042C153.378 11.5263 153.53 12.059 153.586 12.6402H151.098C150.988 12.1144 150.705 11.6923 150.249 11.3741C149.806 11.042 149.157 10.8759 148.3 10.8759C147.305 10.8759 146.587 11.0489 146.145 11.3948C145.716 11.7408 145.502 12.1559 145.502 12.6402C145.502 13.3044 145.779 13.8025 146.331 14.1346C146.884 14.4667 147.734 14.7504 148.881 14.9856C149.724 15.1655 150.463 15.3731 151.098 15.6083C151.748 15.8436 152.287 16.1411 152.715 16.5008C153.143 16.8468 153.461 17.2619 153.669 17.7462C153.89 18.2305 154 18.8117 154 19.4897C154 20.0847 153.883 20.6382 153.648 21.1502C153.413 21.6622 153.054 22.105 152.57 22.4786C152.1 22.8522 151.506 23.1428 150.788 23.3504C150.083 23.5579 149.254 23.6617 148.3 23.6617Z" fill="#EA0000"/>
<rect x="14.9961" y="4.39551" width="2.35707" height="23.6043" fill="#EA0000"/>
<rect x="27.96" y="15.0176" width="2.36043" height="23.5707" transform="rotate(90 27.96 15.0176)" fill="#EA0000"/>
<rect width="2.35875" height="33.5053" transform="matrix(-0.706603 0.707611 -0.706603 -0.707611 25.3418 23.709)" fill="url(#paint0_linear_226_4514)"/>
<rect width="2.35875" height="23.5875" transform="matrix(0.706603 0.707611 -0.706603 0.707611 23.6748 7.01758)" fill="#EA0000"/>
<defs>
<linearGradient id="paint0_linear_226_4514" x1="1.45735" y1="13.5581" x2="1.17936" y2="33.4762" gradientUnits="userSpaceOnUse">
<stop stop-color="#EA0000"/>
<stop offset="1" stop-color="#EA0000" stop-opacity="0"/>
</linearGradient>
</defs>
</svg>
