<svg width="22" height="19" viewBox="0 0 22 19" fill="none" xmlns="http://www.w3.org/2000/svg">
<path d="M21.4576 0.45514C21.3414 0.354798 21.2 0.288064 21.0487 0.262127C20.8974 0.236191 20.7419 0.252035 20.5989 0.307953L1.59949 7.74327C1.33023 7.84797 1.10226 8.03731 0.949919 8.28279C0.797576 8.52826 0.729099 8.81658 0.754798 9.10434C0.780496 9.3921 0.898979 9.66373 1.09241 9.87832C1.28584 10.0929 1.54375 10.2389 1.8273 10.2942L6.75011 11.2608V16.7498C6.74915 17.0488 6.838 17.3412 7.00515 17.5891C7.17231 17.837 7.41007 18.029 7.68761 18.1401C7.96473 18.2533 8.26949 18.2805 8.56225 18.2181C8.85501 18.1557 9.12224 18.0067 9.32918 17.7905L11.7029 15.3286L15.4689 18.6248C15.7406 18.8658 16.091 18.9992 16.4542 18.9998C16.6133 18.9997 16.7715 18.9747 16.9229 18.9258C17.1704 18.8472 17.3929 18.7053 17.5684 18.514C17.744 18.3227 17.8663 18.0887 17.9232 17.8355L21.7286 1.28108C21.7626 1.13178 21.7554 0.976034 21.7076 0.830534C21.6599 0.685035 21.5735 0.555267 21.4576 0.45514ZM16.4561 17.4998L8.7048 10.703L19.8611 2.70702L16.4561 17.4998Z" fill="#EA0000"/>
</svg>
