<svg width="18" height="18" viewBox="0 0 18 18" fill="none" xmlns="http://www.w3.org/2000/svg">
<path d="M17.1561 17.6109C17.0915 17.7286 16.9966 17.8267 16.8812 17.8951C16.7657 17.9636 16.6341 17.9998 16.4999 18H11.9999C11.8736 18 11.7495 17.9681 11.6389 17.9073C11.5282 17.8465 11.4348 17.7587 11.3671 17.6522L7.57113 11.6869L2.05488 17.7544C1.9204 17.8988 1.73442 17.9845 1.53723 17.9927C1.34005 18.0009 1.14757 17.9311 1.00151 17.7984C0.85546 17.6657 0.767609 17.4807 0.757007 17.2836C0.746405 17.0866 0.813907 16.8933 0.944877 16.7456L6.73581 10.3706L0.867064 1.15313C0.794784 1.03973 0.754322 0.908984 0.749915 0.774582C0.745507 0.64018 0.777316 0.507066 0.842011 0.389177C0.906707 0.271288 1.00191 0.172962 1.11765 0.104494C1.23338 0.0360256 1.3654 -6.53095e-05 1.49988 8.87202e-08H5.99988C6.1261 3.91221e-05 6.25028 0.0319361 6.3609 0.0927355C6.47152 0.153535 6.565 0.24127 6.63269 0.347813L10.4286 6.31312L15.9449 0.245625C16.0793 0.101174 16.2653 0.015547 16.4625 0.00730857C16.6597 -0.00092985 16.8522 0.0688843 16.9982 0.201615C17.1443 0.334346 17.2321 0.519295 17.2427 0.716365C17.2533 0.913434 17.1858 1.10674 17.0549 1.25438L11.2639 7.62469L17.1327 16.8478C17.2046 16.9613 17.2447 17.0919 17.2488 17.2262C17.2529 17.3604 17.2209 17.4933 17.1561 17.6109Z" fill="#EA0000"/>
</svg>
